<svg xmlns="http://www.w3.org/2000/svg" viewBox="0 0 32 32" id="option"><g data-name="Layer 2" fill="#404344" class="color000000 svgShape"><path d="M28 18.75H4a2.75 2.75 0 0 1 0-5.5h24a2.75 2.75 0 0 1 0 5.5zm-24-4a1.25 1.25 0 0 0 0 2.5h24a1.25 1.25 0 0 0 0-2.5zm24-6.47H4a2.75 2.75 0 0 1 0-5.5h24a2.75 2.75 0 0 1 0 5.5zm-24-4a1.25 1.25 0 0 0 0 2.5h24a1.25 1.25 0 0 0 0-2.5zm24 24.94H18a2.75 2.75 0 0 1 0-5.5h10a2.75 2.75 0 0 1 0 5.5zm-10-4a1.25 1.25 0 0 0 0 2.5h10a1.25 1.25 0 0 0 0-2.5z" fill="#404344" class="color000000 svgShape"></path><rect width="28" height="4" x="2" y="14" rx="2" ry="2" fill="#404344" class="color000000 svgShape"></rect><rect width="28" height="4" x="2" y="3.53" rx="2" ry="2" fill="#404344" class="color000000 svgShape"></rect><rect width="14" height="4" x="16" y="24.47" rx="2" ry="2" fill="#404344" class="color000000 svgShape"></rect></g></svg>